<?xml version="1.0" standalone="no"?>
<!DOCTYPE svg PUBLIC "-//W3C//DTD SVG 20010904//EN"
 "http://www.w3.org/TR/2001/REC-SVG-20010904/DTD/svg10.dtd">
<svg version="1.0" xmlns="http://www.w3.org/2000/svg"
 width="2176.000000pt" height="1992.000000pt" viewBox="0 0 2176.000000 1992.000000"
 preserveAspectRatio="xMidYMid meet">

<g transform="translate(0.000000,1992.000000) scale(0.100000,-0.100000)"
fill="#000000" stroke="none">
<path d="M10640 19670 c-124 -5 -251 -13 -282 -19 -32 -5 -108 -13 -170 -16
-101 -6 -215 -19 -458 -55 -41 -6 -120 -17 -176 -25 -55 -8 -127 -21 -159 -30
-33 -8 -73 -15 -90 -15 -17 0 -54 -6 -81 -14 -27 -8 -82 -19 -123 -26 -41 -6
-79 -14 -85 -17 -6 -4 -38 -12 -71 -19 -94 -19 -302 -71 -420 -105 -38 -11
-101 -29 -140 -41 -152 -44 -212 -62 -260 -78 -66 -23 -98 -34 -235 -80 -132
-45 -170 -59 -260 -95 -115 -47 -164 -67 -205 -80 -22 -7 -53 -20 -70 -29 -16
-9 -33 -16 -37 -16 -4 0 -40 -15 -80 -34 -154 -71 -187 -86 -193 -86 -8 0
-435 -213 -540 -270 -89 -48 -302 -166 -325 -180 -8 -5 -37 -22 -65 -38 -27
-16 -80 -49 -117 -73 -37 -24 -93 -60 -125 -79 -113 -69 -402 -266 -533 -364
-216 -162 -403 -307 -420 -326 -3 -3 -58 -49 -122 -103 -264 -220 -634 -577
-899 -867 -226 -248 -590 -701 -748 -930 -209 -303 -400 -608 -549 -875 -106
-191 -343 -669 -417 -845 -32 -74 -73 -171 -92 -215 -48 -110 -211 -558 -267
-735 -230 -714 -397 -1597 -436 -2295 -5 -93 -12 -190 -15 -215 -9 -83 -6
-752 5 -970 79 -1572 513 -3056 1287 -4399 648 -1122 1527 -2118 2563 -2902
69 -52 136 -102 150 -112 14 -9 57 -40 95 -68 88 -64 451 -305 525 -348 30
-17 95 -56 144 -86 49 -30 90 -55 91 -55 1 0 63 -34 136 -76 165 -94 487 -258
634 -324 61 -27 143 -65 183 -84 40 -20 76 -36 81 -36 8 0 38 -13 158 -66 17
-8 34 -14 38 -14 3 0 25 -8 48 -19 44 -19 117 -47 212 -82 30 -11 79 -29 110
-40 30 -11 78 -28 107 -38 67 -24 411 -133 503 -159 204 -58 189 -56 223 -38
40 21 80 20 166 -3 152 -40 450 -101 636 -131 36 -6 99 -17 140 -25 42 -8 121
-19 176 -25 56 -5 121 -14 145 -19 24 -5 112 -15 194 -21 83 -6 179 -15 215
-21 36 -5 220 -14 410 -20 386 -12 934 -1 1175 25 289 30 343 36 455 51 235
30 245 30 262 6 15 -21 19 -21 79 -12 214 35 288 49 384 71 44 10 125 28 180
40 219 48 542 135 745 201 30 9 98 31 150 48 96 30 148 49 275 96 39 14 88 32
110 39 22 8 63 23 90 34 138 54 232 93 246 101 8 5 49 22 90 39 226 90 867
416 1049 533 16 10 166 101 240 145 51 31 325 213 415 276 1347 947 2445 2234
3161 3703 492 1010 796 2044 923 3140 162 1389 43 2744 -355 4040 -62 200
-148 455 -187 555 -14 36 -50 128 -80 205 -288 739 -750 1565 -1249 2233 -548
735 -1219 1409 -1947 1954 -220 164 -223 167 -425 302 -265 178 -575 365 -807
489 -175 93 -631 317 -645 317 -3 0 -31 12 -62 26 -31 14 -66 29 -77 34 -11 5
-42 18 -70 30 -27 12 -61 26 -75 30 -14 5 -63 24 -110 44 -46 20 -89 36 -95
36 -5 1 -28 9 -50 20 -22 11 -47 20 -55 20 -8 0 -27 7 -42 14 -27 14 -346 122
-493 168 -187 57 -290 86 -365 103 -58 13 -251 62 -381 95 -42 11 -87 20 -101
20 -13 0 -58 9 -99 19 -41 10 -94 22 -119 25 -25 4 -74 13 -110 21 -36 7 -101
18 -145 24 -44 5 -114 15 -155 21 -199 29 -368 50 -500 60 -80 7 -179 16 -220
20 -117 12 -870 19 -1120 10z m860 -2160 c282 -18 438 -31 535 -45 55 -8 127
-17 160 -20 131 -13 592 -100 740 -140 28 -7 66 -16 85 -20 19 -3 65 -15 103
-26 37 -10 100 -28 140 -39 104 -29 207 -61 247 -76 19 -7 51 -17 70 -23 19
-5 94 -31 165 -56 186 -67 197 -72 230 -89 17 -9 34 -16 40 -16 10 0 165 -65
241 -101 23 -10 45 -19 49 -19 9 0 494 -241 550 -273 22 -13 87 -50 144 -83
58 -32 119 -68 137 -79 471 -290 874 -592 1244 -934 584 -540 1055 -1130 1453
-1821 513 -889 833 -1827 971 -2845 52 -381 61 -529 61 -1010 0 -482 -9 -642
-61 -1025 -88 -660 -261 -1304 -522 -1940 -86 -211 -123 -290 -247 -535 -159
-314 -272 -509 -459 -790 -129 -195 -152 -223 -191 -239 -21 -9 -60 -49 -111
-112 -295 -373 -665 -758 -1044 -1088 -86 -74 -376 -303 -485 -382 -531 -383
-1042 -668 -1650 -916 -27 -11 -63 -26 -80 -34 -16 -8 -43 -18 -60 -24 -16 -5
-61 -21 -100 -35 -38 -14 -113 -40 -165 -57 -52 -16 -111 -36 -130 -43 -33
-13 -131 -42 -280 -84 -115 -33 -152 -42 -330 -85 -119 -28 -335 -71 -440 -87
-36 -6 -101 -17 -145 -25 -44 -8 -128 -19 -187 -24 -59 -6 -130 -15 -158 -20
-52 -10 -318 -26 -630 -39 -96 -4 -254 -3 -350 1 -404 17 -618 30 -659 39 -24
5 -92 14 -150 20 -58 5 -140 16 -181 23 -41 8 -102 18 -134 21 -33 4 -70 11
-82 15 -12 5 -60 14 -106 20 -45 6 -103 17 -128 24 -25 7 -90 23 -145 35 -127
29 -241 57 -330 83 -183 53 -216 63 -295 89 -181 60 -230 77 -360 127 -58 22
-136 52 -175 67 -70 27 -91 36 -215 93 -36 16 -99 44 -140 62 -120 52 -450
224 -586 305 -18 11 -57 33 -85 48 -28 16 -88 52 -133 81 -44 29 -119 77 -166
107 -120 77 -346 237 -475 339 -60 47 -136 106 -167 131 -137 106 -384 330
-582 525 -547 539 -1051 1227 -1412 1929 -465 903 -734 1837 -830 2880 -21
231 -30 862 -15 1108 46 741 195 1480 433 2137 129 358 356 828 592 1230 217
369 573 856 855 1170 218 243 670 681 834 808 19 15 82 65 140 112 221 178
585 432 790 551 32 19 66 39 75 44 82 49 215 126 252 145 25 12 105 54 179 92
73 38 193 96 266 128 74 33 162 72 197 88 127 58 159 72 169 72 6 0 25 6 42
14 99 45 535 198 662 232 28 7 84 22 125 33 41 11 102 27 135 36 33 9 83 22
110 30 28 7 70 16 95 20 25 3 68 12 95 20 85 24 469 92 570 100 39 4 90 11
114 16 40 9 248 27 541 48 149 11 580 11 740 1z"/>
<path d="M7520 15734 c-16 -40 -13 -6747 2 -6762 14 -14 774 -18 795 -4 10 6
13 316 16 1377 3 1354 3 1371 25 1480 90 461 334 819 665 974 107 51 173 70
307 91 156 24 249 24 415 1 145 -21 203 -37 320 -88 283 -123 466 -370 539
-729 39 -193 39 -172 46 -2944 5 -2044 9 -2732 19 -2815 57 -506 143 -800 321
-1095 212 -351 479 -613 825 -811 94 -54 250 -129 268 -129 7 0 21 -6 32 -13
18 -13 102 -40 245 -81 106 -31 256 -56 390 -67 166 -14 530 -4 649 17 47 9
113 20 146 25 61 10 91 19 245 67 226 70 452 191 655 350 88 69 283 265 356
357 285 359 448 765 504 1259 22 183 16 591 -9 751 -68 420 -225 786 -473
1095 -225 280 -569 548 -873 680 -52 23 -104 45 -115 50 -38 17 -140 51 -180
60 -22 5 -60 16 -84 24 -24 9 -53 16 -65 16 -12 0 -58 10 -102 22 -73 20 -102
22 -394 22 -336 1 -400 -6 -635 -66 -238 -62 -555 -192 -591 -242 -11 -17 -14
-94 -14 -428 l0 -408 23 0 c13 0 68 30 123 66 307 206 665 316 1024 317 191 1
396 -31 545 -84 17 -6 48 -17 70 -24 112 -37 302 -156 414 -260 244 -226 405
-498 476 -810 65 -284 59 -672 -14 -957 -38 -145 -61 -208 -127 -343 -138
-281 -386 -533 -644 -652 -106 -50 -131 -59 -225 -85 -167 -47 -277 -62 -460
-62 -181 -1 -290 14 -455 60 -570 160 -977 697 -1040 1369 -6 70 -11 1058 -14
2745 -3 1859 -7 2673 -15 2765 -50 569 -206 1002 -480 1329 -262 313 -569 474
-1036 545 -359 55 -747 1 -1043 -143 -40 -20 -74 -36 -77 -36 -2 0 -48 -27
-101 -61 -104 -64 -185 -124 -273 -201 -56 -49 -78 -57 -99 -36 -9 9 -12 303
-12 1261 0 841 -3 1255 -10 1268 -10 18 -25 19 -401 19 l-389 0 -10 -26z"/>
</g>
</svg>
